<svg width="26" height="20" viewBox="0 0 26 20" fill="none" xmlns="http://www.w3.org/2000/svg">
<g clip-path="url(#clip0_2585_383)">
<path d="M4.72671 19.9006V18.5769C4.72671 18.0693 4.41451 17.7385 3.87937 17.7385C3.61186 17.7385 3.322 17.8267 3.12131 18.1136C2.96531 17.8708 2.74238 17.7385 2.40794 17.7385C2.18491 17.7385 1.96208 17.8046 1.78363 18.0473V17.7826H1.31543V19.9006H1.78363V18.7312C1.78363 18.3563 1.98432 18.1797 2.29652 18.1797C2.60852 18.1797 2.76473 18.3783 2.76473 18.7312V19.9006H3.23293V18.7312C3.23293 18.3563 3.45576 18.1797 3.74562 18.1797C4.05782 18.1797 4.21382 18.3783 4.21382 18.7312V19.9006H4.72671ZM11.6605 17.7826H10.9025V17.1428H10.4343V17.7826H10.0107V18.2017H10.4342V19.1726C10.4342 19.658 10.6349 19.9447 11.17 19.9447C11.3707 19.9447 11.5936 19.8786 11.7498 19.7903L11.6159 19.3932C11.4821 19.4814 11.3261 19.5035 11.2146 19.5035C10.9917 19.5035 10.9025 19.3711 10.9025 19.1504V18.2017H11.6605V17.7826ZM15.6291 17.7384C15.3616 17.7384 15.1833 17.8708 15.0718 18.0473V17.7826H14.6036V19.9006H15.0718V18.7092C15.0718 18.3563 15.2278 18.1577 15.5176 18.1577C15.6068 18.1577 15.7183 18.1798 15.8075 18.2018L15.9412 17.7606C15.8521 17.7385 15.7183 17.7385 15.6291 17.7385V17.7384ZM9.63167 17.9591C9.40864 17.8046 9.09654 17.7385 8.76209 17.7385C8.22706 17.7385 7.87037 18.0032 7.87037 18.4224C7.87037 18.7755 8.13789 18.974 8.60609 19.0402L8.82902 19.0623C9.0743 19.1063 9.20805 19.1726 9.20805 19.2829C9.20805 19.4373 9.02971 19.5476 8.71751 19.5476C8.40541 19.5476 8.16013 19.4373 8.00403 19.327L7.7811 19.68C8.02637 19.8565 8.36082 19.9447 8.69516 19.9447C9.31947 19.9447 9.67626 19.658 9.67626 19.2608C9.67626 18.8857 9.3864 18.6871 8.94044 18.621L8.71751 18.5989C8.51682 18.5768 8.36082 18.5328 8.36082 18.4004C8.36082 18.2459 8.51682 18.1577 8.76209 18.1577C9.02971 18.1577 9.29723 18.2679 9.43098 18.3342L9.63167 17.9591ZM22.0726 17.7385C21.805 17.7385 21.6266 17.8708 21.5151 18.0473V17.7826H21.0469V19.9006H21.5151V18.7092C21.5151 18.3563 21.6712 18.1577 21.961 18.1577C22.0502 18.1577 22.1617 18.1798 22.2509 18.2018L22.3847 17.7606C22.2955 17.7385 22.1617 17.7385 22.0726 17.7385ZM16.0973 18.8416C16.0973 19.4814 16.5432 19.9447 17.2344 19.9447C17.5465 19.9447 17.7695 19.8786 17.9924 19.7021L17.7695 19.327C17.5911 19.4594 17.4128 19.5255 17.2121 19.5255C16.8331 19.5255 16.5655 19.2608 16.5655 18.8416C16.5655 18.4445 16.8331 18.1797 17.2121 18.1577C17.4128 18.1577 17.5911 18.2238 17.7695 18.3563L17.9924 17.9812C17.7695 17.8046 17.5465 17.7385 17.2344 17.7385C16.5432 17.7385 16.0973 18.2018 16.0973 18.8416ZM20.4227 18.8416V17.7826H19.9545V18.0473C19.7984 17.8488 19.5755 17.7385 19.2856 17.7385C18.6836 17.7385 18.2154 18.2018 18.2154 18.8416C18.2154 19.4814 18.6836 19.9447 19.2856 19.9447C19.5977 19.9447 19.8207 19.8345 19.9545 19.6359V19.9006H20.4227V18.8416ZM18.7059 18.8416C18.7059 18.4665 18.9511 18.1577 19.3524 18.1577C19.7315 18.1577 19.9991 18.4445 19.9991 18.8416C19.9991 19.2167 19.7315 19.5255 19.3524 19.5255C18.9511 19.5034 18.7059 19.2167 18.7059 18.8416ZM13.1098 17.7385C12.4855 17.7385 12.0395 18.1797 12.0395 18.8416C12.0395 19.5035 12.4854 19.9447 13.132 19.9447C13.4441 19.9447 13.7563 19.8565 14.0016 19.658L13.7786 19.327C13.6002 19.4594 13.3773 19.5476 13.1544 19.5476C12.8645 19.5476 12.5746 19.4153 12.5077 19.0401H14.0908V18.8637C14.1131 18.1797 13.7118 17.7385 13.1098 17.7385ZM13.1098 18.1356C13.3995 18.1356 13.6003 18.3122 13.6448 18.6431H12.5301C12.5746 18.3563 12.7753 18.1356 13.1098 18.1356ZM24.7257 18.8416V16.9442H24.2575V18.0473C24.1014 17.8488 23.8785 17.7385 23.5886 17.7385C22.9866 17.7385 22.5184 18.2018 22.5184 18.8416C22.5184 19.4814 22.9866 19.9447 23.5886 19.9447C23.9008 19.9447 24.1237 19.8345 24.2575 19.6359V19.9006H24.7257V18.8416ZM23.009 18.8416C23.009 18.4665 23.2541 18.1577 23.6555 18.1577C24.0346 18.1577 24.3021 18.4445 24.3021 18.8416C24.3021 19.2167 24.0346 19.5255 23.6555 19.5255C23.2541 19.5034 23.009 19.2167 23.009 18.8416ZM7.35748 18.8416V17.7826H6.88928V18.0473C6.73318 17.8488 6.51025 17.7385 6.22039 17.7385C5.61843 17.7385 5.15023 18.2018 5.15023 18.8416C5.15023 19.4814 5.61843 19.9447 6.22039 19.9447C6.53259 19.9447 6.75552 19.8345 6.88928 19.6359V19.9006H7.35748V18.8416ZM5.61843 18.8416C5.61843 18.4665 5.8637 18.1577 6.26498 18.1577C6.64401 18.1577 6.91162 18.4445 6.91162 18.8416C6.91162 19.2167 6.64401 19.5255 6.26498 19.5255C5.8637 19.5034 5.61843 19.2167 5.61843 18.8416Z" fill="#151618"/>
<path d="M9.47559 1.69885H16.4986V14.1864H9.47559V1.69885Z" fill="#FF5F00"/>
<path d="M9.92154 7.94261C9.92154 5.40543 11.1255 3.15497 12.9759 1.69879C11.616 0.639799 9.8993 0 8.02648 0C3.58952 0 0 3.55206 0 7.94261C0 12.3331 3.58952 15.8852 8.02638 15.8852C9.8992 15.8852 11.6159 15.2454 12.9759 14.1863C11.1255 12.7523 9.92154 10.4798 9.92154 7.94261Z" fill="#EB001B"/>
<path d="M25.9742 7.94261C25.9742 12.3331 22.3847 15.8852 17.9478 15.8852C16.075 15.8852 14.3583 15.2454 12.9983 14.1863C14.8711 12.7303 16.0528 10.4798 16.0528 7.94261C16.0528 5.40543 14.8488 3.15497 12.9983 1.69879C14.3582 0.639799 16.075 0 17.9478 0C22.3847 0 25.9742 3.57417 25.9742 7.94261Z" fill="#F79E1B"/>
</g>
<defs>
<clipPath id="clip0_2585_383">
<rect width="26" height="20" fill="white"/>
</clipPath>
</defs>
</svg>
